<?xml version="1.0" ?><!DOCTYPE svg  PUBLIC '-//W3C//DTD SVG 1.1//EN'  'http://www.w3.org/Graphics/SVG/1.1/DTD/svg11.dtd'><svg enable-background="new 0 0 500 500" height="500px" id="Layer_1" version="1.1" viewBox="0 0 500 500" width="500px" xml:space="preserve" xmlns="http://www.w3.org/2000/svg" xmlns:xlink="http://www.w3.org/1999/xlink"><g><g><line clip-rule="evenodd" fill="none" fill-rule="evenodd" stroke="#130B7A" stroke-linecap="round" stroke-linejoin="round" stroke-miterlimit="2.6131" stroke-width="10" x1="437.485" x2="397.414" y1="304.246" y2="368.083"/><path clip-rule="evenodd" d="    M397.414,368.083c-5.066,8.015-10.936,16.389-19.102,21.081" fill="none" fill-rule="evenodd" stroke="#130B7A" stroke-linecap="round" stroke-linejoin="round" stroke-miterlimit="2.6131" stroke-width="10"/><line clip-rule="evenodd" fill="none" fill-rule="evenodd" stroke="#130B7A" stroke-linecap="round" stroke-linejoin="round" stroke-miterlimit="2.6131" stroke-width="10" x1="378.313" x2="323.223" y1="389.164" y2="421.083"/><path clip-rule="evenodd" d="    M323.223,421.083c-20.957,11.904-30.757,6.977-28.196-19.891" fill="none" fill-rule="evenodd" stroke="#130B7A" stroke-linecap="round" stroke-linejoin="round" stroke-miterlimit="2.6131" stroke-width="10"/><line clip-rule="evenodd" fill="none" fill-rule="evenodd" stroke="#130B7A" stroke-linecap="round" stroke-linejoin="round" stroke-miterlimit="2.6131" stroke-width="10" x1="295.026" x2="300.646" y1="401.192" y2="340.649"/><path clip-rule="evenodd" d="    M300.646,340.649c0.913-9.772,4.733-18.16,8.471-24.112" fill="none" fill-rule="evenodd" stroke="#130B7A" stroke-linecap="round" stroke-linejoin="round" stroke-miterlimit="2.6131" stroke-width="10"/><line clip-rule="evenodd" fill="none" fill-rule="evenodd" stroke="#130B7A" stroke-linecap="round" stroke-linejoin="round" stroke-miterlimit="2.6131" stroke-width="10" x1="309.117" x2="379.102" y1="316.537" y2="208.004"/><path clip-rule="evenodd" d="    M336.012,334.601c5.468-7.959,16.666-10.104,25.275-4.845c8.9,5.385,11.82,16.555,6.533,24.971" fill="none" fill-rule="evenodd" stroke="#130B7A" stroke-linecap="round" stroke-linejoin="round" stroke-miterlimit="2.6131" stroke-width="10"/><path clip-rule="evenodd" d="    M368.152,354.519c4.318-6.34,13.178-8.069,20.084-3.89c7.087,4.291,9.413,13.219,5.191,19.904" fill="none" fill-rule="evenodd" stroke="#130B7A" stroke-linecap="round" stroke-linejoin="round" stroke-miterlimit="2.6131" stroke-width="10"/><path clip-rule="evenodd" d="    M309.823,319.25c4.374-6.367,13.357-8.111,20.251-3.876c7.17,4.347,9.551,13.316,5.287,20.043" fill="none" fill-rule="evenodd" stroke="#130B7A" stroke-linecap="round" stroke-linejoin="round" stroke-miterlimit="2.6131" stroke-width="10"/><path clip-rule="evenodd" d="    M297.311,376.402c9.896,1.813,19.337,5.385,27.919,10.547c7.516,4.596,14.271,10.368,19.932,17.123" fill="none" fill-rule="evenodd" stroke="#130B7A" stroke-linecap="round" stroke-linejoin="round" stroke-miterlimit="2.6131" stroke-width="10"/></g><line clip-rule="evenodd" fill="none" fill-rule="evenodd" stroke="#130B7A" stroke-linecap="round" stroke-linejoin="round" stroke-miterlimit="2.6131" stroke-width="10" x1="434.177" x2="434.177" y1="380.444" y2="446.704"/><path clip-rule="evenodd" d="   M434.177,446.704c0,15.517-13.053,28.292-28.832,28.292" fill="none" fill-rule="evenodd" stroke="#130B7A" stroke-linecap="round" stroke-linejoin="round" stroke-miterlimit="2.6131" stroke-width="10"/><line clip-rule="evenodd" fill="none" fill-rule="evenodd" stroke="#130B7A" stroke-linecap="round" stroke-linejoin="round" stroke-miterlimit="2.6131" stroke-width="10" x1="405.345" x2="91.264" y1="474.996" y2="474.996"/><path clip-rule="evenodd" d="   M91.264,474.996c-15.738,0-28.749-12.692-28.749-28.292" fill="none" fill-rule="evenodd" stroke="#130B7A" stroke-linecap="round" stroke-linejoin="round" stroke-miterlimit="2.6131" stroke-width="10"/><polyline clip-rule="evenodd" fill="none" fill-rule="evenodd" points="   62.515,446.704 62.515,138.201 187.048,25.004 405.345,25.004  " stroke="#130B7A" stroke-linecap="round" stroke-linejoin="round" stroke-miterlimit="2.6131" stroke-width="10"/><path clip-rule="evenodd" d="   M405.345,25.004c15.863,0,28.832,12.79,28.832,28.292" fill="none" fill-rule="evenodd" stroke="#130B7A" stroke-linecap="round" stroke-linejoin="round" stroke-miterlimit="2.6131" stroke-width="10"/><line clip-rule="evenodd" fill="none" fill-rule="evenodd" stroke="#130B7A" stroke-linecap="round" stroke-linejoin="round" stroke-miterlimit="2.6131" stroke-width="10" x1="434.177" x2="434.177" y1="53.296" y2="259.094"/><line clip-rule="evenodd" fill="none" fill-rule="evenodd" stroke="#130B7A" stroke-linecap="round" stroke-linejoin="round" stroke-miterlimit="2.6131" stroke-width="10" x1="192.778" x2="192.778" y1="25.004" y2="129.37"/><path clip-rule="evenodd" d="   M192.778,129.37c0,8.305-6.977,15.143-15.378,15.143" fill="none" fill-rule="evenodd" stroke="#130B7A" stroke-linecap="round" stroke-linejoin="round" stroke-miterlimit="2.6131" stroke-width="10"/><line clip-rule="evenodd" fill="none" fill-rule="evenodd" stroke="#130B7A" stroke-linecap="round" stroke-linejoin="round" stroke-miterlimit="2.6131" stroke-width="10" x1="177.4" x2="62.515" y1="144.513" y2="144.513"/><line clip-rule="evenodd" fill="none" fill-rule="evenodd" stroke="#130B7A" stroke-linecap="round" stroke-linejoin="round" stroke-miterlimit="2.6131" stroke-width="10" x1="267.814" x2="376.706" y1="73.007" y2="73.007"/><path clip-rule="evenodd" d="   M376.706,73.007c3.737,0,6.77,3.28,6.77,7.336" fill="none" fill-rule="evenodd" stroke="#130B7A" stroke-linecap="round" stroke-linejoin="round" stroke-miterlimit="2.6131" stroke-width="10"/><line clip-rule="evenodd" fill="none" fill-rule="evenodd" stroke="#130B7A" stroke-linecap="round" stroke-linejoin="round" stroke-miterlimit="2.6131" stroke-width="10" x1="383.476" x2="383.476" y1="80.343" y2="142.326"/><path clip-rule="evenodd" d="   M383.476,142.326c0,4.056-3.032,7.322-6.77,7.322" fill="none" fill-rule="evenodd" stroke="#130B7A" stroke-linecap="round" stroke-linejoin="round" stroke-miterlimit="2.6131" stroke-width="10"/><line clip-rule="evenodd" fill="none" fill-rule="evenodd" stroke="#130B7A" stroke-linecap="round" stroke-linejoin="round" stroke-miterlimit="2.6131" stroke-width="10" x1="376.706" x2="267.814" y1="149.648" y2="149.648"/><path clip-rule="evenodd" d="   M267.814,149.648c-3.766,0-6.797-3.267-6.797-7.322" fill="none" fill-rule="evenodd" stroke="#130B7A" stroke-linecap="round" stroke-linejoin="round" stroke-miterlimit="2.6131" stroke-width="10"/><line clip-rule="evenodd" fill="none" fill-rule="evenodd" stroke="#130B7A" stroke-linecap="round" stroke-linejoin="round" stroke-miterlimit="2.6131" stroke-width="10" x1="261.018" x2="261.018" y1="142.326" y2="80.343"/><path clip-rule="evenodd" d="   M261.018,80.343c0-4.056,3.031-7.336,6.797-7.336" fill="none" fill-rule="evenodd" stroke="#130B7A" stroke-linecap="round" stroke-linejoin="round" stroke-miterlimit="2.6131" stroke-width="10"/><line clip-rule="evenodd" fill="none" fill-rule="evenodd" stroke="#130B7A" stroke-linecap="round" stroke-linejoin="round" stroke-miterlimit="2.6131" stroke-width="10" x1="107.957" x2="321.963" y1="215.465" y2="215.465"/><line clip-rule="evenodd" fill="none" fill-rule="evenodd" stroke="#130B7A" stroke-linecap="round" stroke-linejoin="round" stroke-miterlimit="2.6131" stroke-width="10" x1="107.957" x2="252.063" y1="316.163" y2="316.163"/><line clip-rule="evenodd" fill="none" fill-rule="evenodd" stroke="#130B7A" stroke-linecap="round" stroke-linejoin="round" stroke-miterlimit="2.6131" stroke-width="10" x1="107.957" x2="252.063" y1="416.861" y2="416.861"/></g></svg>